# xmcd
#
# Track frame offsets: 
#        150
#        21878
#        43840
#        72843
#        81475
#        99560
#        128363
#        137985
#
# Disc length: 2101 seconds
#
# Revision: 2
# Processed by: cddbd v1.5.2PL0 Copyright (c) Steve Scherf et al.
# Submitted via: ExactAudioCopy v0.90b4
#
DISCID=6b083308
DTITLE=Made In Sweden - (With Love)
DYEAR=1968
DGENRE=Progressive Rock
TTITLE0=I Don't Care
TTITLE1=Peter Gunn
TTITLE2=Sombrero Sam
TTITLE3=Little Dame
TTITLE4=Saucery
TTITLE5=A Day In The Life
TTITLE6=Harry Lime Time
TTITLE7=Little Charlie
EXTD=
EXTT0=
EXTT1=
EXTT2=
EXTT3=
EXTT4=
EXTT5=
EXTT6=
EXTT7=
PLAYORDER=
